# xmcd
#
# Track frame offsets:
#	150
#	15843
#	28637
#	48225
#	63214
#	78301
#	92259
#	104643
#	124839
#	137748
#	154051
#
# Disc length: 2220 seconds
#
# Revision: 0
# Processed by: cddbd v1.4PL0 Copyright (c) Steve Scherf et al.
# Submitted via: dBpowerAMP V4.0
#
DISCID=7c08aa0b
DTITLE=Little Toby Walker - Back In The Groove
DYEAR=1988
DGENRE=Blues
TTITLE0=Mortgage On My Soul
TTITLE1=The KC Rag
TTITLE2=Hip Shakin Mama
TTITLE3=Oops
TTITLE4=Wade's Barber Shop
TTITLE5=Ride This Train
TTITLE6=Dud Low Joe
TTITLE7=Phonograph Blues
TTITLE8=Lyin Dog
TTITLE9=Bad Weather Blues
TTITLE10=It's Tough
EXTD=
EXTT0=
EXTT1=
EXTT2=
EXTT3=
EXTT4=
EXTT5=
EXTT6=
EXTT7=
EXTT8=
EXTT9=
EXTT10=
PLAYORDER=
